{"title":"The Flash 2014 S03E01 1080p HDTV HEVC DD5.1 x265","uid":15959654,"size":724761672,"categoryP":"video","categoryS":"hd___tv_shows","magnet":"?xt=urn:btih:ed70e0d8c64ddc6520cacd768c11116685fbd68b&amp;dn=The+Flash+2014+S03E01+1080p+HDTV+HEVC+DD5.1+x265&amp;tr=udp%3A%2F%2Ftracker.leechers-paradise.org%3A6969&amp;tr=udp%3A%2F%2Fzer0day.ch%3A1337&amp;tr=udp%3A%2F%2Fopen.demonii.com%3A1337&amp;tr=udp%3A%2F%2Ftracker.coppersurfer.tk%3A6969&amp;tr=udp%3A%2F%2Fexodus.desync.com%3A6969","seeders":62,"leechers":20,"uploader":"nayhtut","files":1,"time":1475649130,"description":"Source: The Flash 2014 S03E01 1080p HDTV X264-DIMENSION (1.91 GB)\r\n\r\n \r\nComplete name: The.Flash.2014.S03E01.1080p.HDTV.HEVC.DD5.1.x265.mkv\r\nFormat                                   : Matroska\r\nFormat version                           : Version 4 / Version 2\r\nFile size                                : 691 MiB\r\nDuration                                 : 42mn 28s\r\nOverall bit rate                         : 2 275 Kbps\r\nEncoded date                             : UTC 2016-10-05 03:48:05\r\nWriting library                          : libebml v1.3.4 + libmatroska v1.4.5\r\nDURATION                                 : 00:42:28.736000000\r\n\r\nVideo\r\n\r\nID                                       : 1\r\nFormat                                   : V_MPEGH/ISO/HEVC\r\nCodec ID                                 : V_MPEGH/ISO/HEVC\r\nDuration                                 : 42mn 28s\r\nBit rate                                 : 1 846 Kbps\r\nWidth                                    : 1 920 pixels\r\nHeight                                   : 1 070 pixels\r\nDisplay aspect ratio                     : 16:9\r\nFrame rate                               : 23.976 fps\r\nBits/(Pixel*Frame)                       : 0.037\r\nStream size                              : 561 MiB (81%)\r\nTitle                                    : The.Flash.2014.S03E01.1080p.HDTV.HEVC.DD5.1.x265\r\nLanguage                                 : English\r\nDefault                                  : Yes\r\nForced                                   : No\r\nDURATION                                 : 00:42:28.671000000\r\n\r\nAudio\r\n\r\nID                                       : 2\r\nFormat                                   : E-AC-3\r\nFormat/Info                              : Audio Coding 3\r\nFormat settings, Endianness              : Big\r\nCodec ID                                 : A_EAC3\r\nDuration                                 : 42mn 28s\r\nBit rate mode                            : Constant\r\nBit rate                                 : 384 Kbps\r\nChannel(s)                               : 6 channels\r\nChannel positions                        : Front: L C R, Side: L R, LFE\r\nSampling rate                            : 48.0 KHz\r\nCompression mode                         : Lossy\r\nStream size                              : 117 MiB (17%)\r\nTitle                                    : E-AC-3 5.1\r\nLanguage                                 : English\r\nDefault                                  : Yes\r\nForced                                   : No","torrent":{"xt":"urn:btih:ed70e0d8c64ddc6520cacd768c11116685fbd68b","amp;dn":"The+Flash+2014+S03E01+1080p+HDTV+HEVC+DD5.1+x265","amp;tr":["udp%3A%2F%2Ftracker.leechers-paradise.org%3A6969","udp%3A%2F%2Fzer0day.ch%3A1337","udp%3A%2F%2Fopen.demonii.com%3A1337","udp%3A%2F%2Ftracker.coppersurfer.tk%3A6969","udp%3A%2F%2Fexodus.desync.com%3A6969"],"infoHash":"ed70e0d8c64ddc6520cacd768c11116685fbd68b","infoHashBuffer":{"type":"Buffer","data":[237,112,224,216,198,77,220,101,32,202,205,118,140,17,17,102,133,251,214,139]},"announce":[],"urlList":[]}}